# xmcd
#
# Track frame offsets: 
#        150
#        15457
#        29177
#        43402
#        56927
#        76990
#        93250
#        109640
#        128047
#        140867
#
# Disc length: 2047 seconds
#
# Revision: 3
# Processed by: cddbd v1.5.2PL0 Copyright (c) Steve Scherf et al.
# Submitted via: ExactAudioCopy v1.1
#
DISCID=8d07fd0a
DTITLE=Ray Stevens - Osama-Yo' Mama The Album
DYEAR=2002
DGENRE=Country
TTITLE0=Osama-Yo' Mama
TTITLE1=Hang Up And Drive
TTITLE2=Safe At Home
TTITLE3=Freudian Slip
TTITLE4=Deerslayer
TTITLE5=Bon Temps Roulette
TTITLE6=The Hustler
TTITLE7=The Lady On The Radio
TTITLE8=Gone For Good
TTITLE9=United We Stand
EXTD=YEAR: 2002
EXTT0=
EXTT1=
EXTT2=
EXTT3=
EXTT4=
EXTT5=
EXTT6=
EXTT7=
EXTT8=
EXTT9=
PLAYORDER=
